<svg width="181" height="90" viewBox="0 0 181 90" fill="none" xmlns="http://www.w3.org/2000/svg">
<path d="M71.176 40.792C73.656 40.792 74.896 39.904 74.896 38.128C74.896 36.832 74.592 36.016 73.984 35.68C73.392 35.328 72.048 35.152 69.952 35.152L69.856 40.744C70.4 40.776 70.84 40.792 71.176 40.792ZM71.032 33.184C72.264 33.152 73.136 32.992 73.648 32.704C74.16 32.416 74.416 31.816 74.416 30.904C74.416 29.976 74.12 29.36 73.528 29.056C72.936 28.752 72.04 28.6 70.84 28.6H69.976C69.944 30.616 69.928 32.136 69.928 33.16L71.032 33.184ZM71.056 43.024H65.128L64.912 41.704C65.744 41.368 66.416 41.136 66.928 41.008C66.928 40.96 66.856 36.728 66.712 28.312C66.456 28.248 65.792 28.04 64.72 27.688L64.912 26.224H71.56C73.464 26.224 74.944 26.592 76 27.328C77.056 28.064 77.584 29.128 77.584 30.52C77.584 31.192 77.4 31.92 77.032 32.704C76.68 33.488 76.272 33.952 75.808 34.096C76.512 34.48 77.064 35.016 77.464 35.704C77.864 36.392 78.064 37.184 78.064 38.08C78.064 39.552 77.464 40.744 76.264 41.656C75.064 42.568 73.328 43.024 71.056 43.024ZM92.8932 34.288L92.7972 28.288L90.8052 27.664L90.9972 26.2H97.2372C97.2212 26.2 97.2212 26.216 97.2372 26.248C97.2692 26.28 97.3012 26.352 97.3332 26.464C97.3812 26.56 97.4292 26.68 97.4772 26.824C97.5732 27.08 97.6372 27.504 97.6692 28.096C96.8532 28.224 96.3172 28.304 96.0612 28.336L96.0132 34.432C95.9812 37.488 95.4212 39.728 94.3332 41.152C93.2612 42.576 91.4212 43.288 88.8132 43.288C86.2052 43.288 84.3892 42.624 83.3652 41.296C82.3412 39.968 81.8132 37.824 81.7812 34.864C81.7492 31.888 81.7172 29.696 81.6852 28.288L79.6932 27.664L79.8852 26.2H86.1252C86.1092 26.2 86.1092 26.216 86.1252 26.248C86.1572 26.28 86.1892 26.352 86.2212 26.464C86.2692 26.56 86.3172 26.68 86.3652 26.824C86.4612 27.08 86.5252 27.504 86.5572 28.096C85.7412 28.224 85.2052 28.304 84.9492 28.336L84.8772 34.432C84.8772 36.208 84.9732 37.472 85.1652 38.224C85.3572 38.96 85.5972 39.48 85.8852 39.784C86.5092 40.424 87.5012 40.744 88.8612 40.744C90.1732 40.744 91.1652 40.376 91.8372 39.64C92.3812 39.048 92.7092 38.008 92.8212 36.52C92.8692 35.928 92.8932 35.184 92.8932 34.288ZM104.387 40.792C106.867 40.792 108.107 39.904 108.107 38.128C108.107 36.832 107.803 36.016 107.195 35.68C106.603 35.328 105.259 35.152 103.163 35.152L103.067 40.744C103.611 40.776 104.051 40.792 104.387 40.792ZM104.243 33.184C105.475 33.152 106.347 32.992 106.859 32.704C107.371 32.416 107.627 31.816 107.627 30.904C107.627 29.976 107.331 29.36 106.739 29.056C106.147 28.752 105.251 28.6 104.051 28.6H103.187C103.155 30.616 103.139 32.136 103.139 33.16L104.243 33.184ZM104.267 43.024H98.3389L98.1229 41.704C98.9549 41.368 99.6269 41.136 100.139 41.008C100.139 40.96 100.067 36.728 99.9229 28.312C99.6669 28.248 99.0029 28.04 97.9309 27.688L98.1229 26.224H104.771C106.675 26.224 108.155 26.592 109.211 27.328C110.267 28.064 110.795 29.128 110.795 30.52C110.795 31.192 110.611 31.92 110.243 32.704C109.891 33.488 109.483 33.952 109.019 34.096C109.723 34.48 110.275 35.016 110.675 35.704C111.075 36.392 111.275 37.184 111.275 38.08C111.275 39.552 110.675 40.744 109.475 41.656C108.275 42.568 106.539 43.024 104.267 43.024ZM119.504 40.792C121.984 40.792 123.224 39.904 123.224 38.128C123.224 36.832 122.92 36.016 122.312 35.68C121.72 35.328 120.376 35.152 118.28 35.152L118.184 40.744C118.728 40.776 119.168 40.792 119.504 40.792ZM119.36 33.184C120.592 33.152 121.464 32.992 121.976 32.704C122.488 32.416 122.744 31.816 122.744 30.904C122.744 29.976 122.448 29.36 121.856 29.056C121.264 28.752 120.368 28.6 119.168 28.6H118.304C118.272 30.616 118.256 32.136 118.256 33.16L119.36 33.184ZM119.384 43.024H113.456L113.24 41.704C114.072 41.368 114.744 41.136 115.256 41.008C115.256 40.96 115.184 36.728 115.04 28.312C114.784 28.248 114.12 28.04 113.048 27.688L113.24 26.224H119.888C121.792 26.224 123.272 26.592 124.328 27.328C125.384 28.064 125.912 29.128 125.912 30.52C125.912 31.192 125.728 31.92 125.36 32.704C125.008 33.488 124.6 33.952 124.136 34.096C124.84 34.48 125.392 35.016 125.792 35.704C126.192 36.392 126.392 37.184 126.392 38.08C126.392 39.552 125.792 40.744 124.592 41.656C123.392 42.568 121.656 43.024 119.384 43.024ZM138.653 38.632C139.037 38.568 139.325 38.536 139.517 38.536C139.725 38.536 140.165 38.592 140.837 38.704C140.901 38.832 140.989 39.24 141.101 39.928C141.229 40.616 141.293 41.176 141.293 41.608C141.293 42.024 141.245 42.488 141.149 43H129.509L129.293 41.68C130.077 41.36 130.749 41.128 131.309 40.984C131.309 40.936 131.237 36.704 131.093 28.288L129.101 27.664L129.293 26.2H135.533C135.517 26.2 135.517 26.216 135.533 26.248C135.565 26.28 135.597 26.352 135.629 26.464C135.677 26.56 135.725 26.68 135.773 26.824C135.869 27.08 135.933 27.504 135.965 28.096C135.149 28.224 134.613 28.304 134.357 28.336C134.293 33.856 134.253 37.976 134.237 40.696H138.125L138.653 38.632ZM147.624 28.6C147.624 30.424 147.608 31.992 147.576 33.304H150.024L150.264 31.648C151.08 31.648 151.872 31.848 152.64 32.248V37.048L151.056 37.12C150.672 36.544 150.448 36.04 150.384 35.608H147.552C147.52 37.848 147.504 39.536 147.504 40.672H151.608L152.136 38.584C153.128 38.584 153.88 38.632 154.392 38.728C154.632 39.64 154.752 40.472 154.752 41.224C154.752 41.96 154.728 42.552 154.68 43H142.776L142.56 41.68C143.6 41.28 144.272 41.048 144.576 40.984C144.56 40.04 144.544 38.712 144.528 37C144.464 33.16 144.408 30.256 144.36 28.288L142.368 27.664L142.56 26.2H154.344C154.392 26.632 154.416 27.176 154.416 27.832C154.416 28.472 154.296 29.368 154.056 30.52C153.56 30.68 152.808 30.76 151.8 30.76L151.248 28.6H147.624Z" fill="url(#paint0_linear_84_899)"/>
<path d="M106.744 50.2C109.544 50.2 111.4 50.6 112.312 51.4C113.144 52.12 113.56 53.232 113.56 54.736C113.56 57.072 112.344 58.664 109.912 59.512L113.368 64.72L115.432 64.936C115.432 65.624 115.248 66.312 114.88 67H111.4L106.696 59.824H105.928L105.856 64.72L107.608 64.912C107.608 65.568 107.424 66.264 107.056 67H101.128L100.912 65.68C101.872 65.296 102.544 65.064 102.928 64.984C102.896 63.016 102.856 60.64 102.808 57.856C102.76 55.072 102.728 53.208 102.712 52.264L100.72 51.664C100.736 51.296 100.808 50.808 100.936 50.2H106.744ZM108.64 52.768C108.144 52.656 107.48 52.6 106.648 52.6H105.976C105.944 54.808 105.928 56.464 105.928 57.568L107.104 57.544C108.048 57.528 108.792 57.336 109.336 56.968C109.896 56.584 110.176 55.848 110.176 54.76C110.176 53.672 109.664 53.008 108.64 52.768ZM128.206 50.464L128.23 50.704C128.23 51.36 128.126 51.92 127.918 52.384C127.71 52.544 127.382 52.672 126.934 52.768L130.942 64.624L133.222 64.912C133.222 65.568 133.038 66.264 132.67 67H126.838L126.622 65.68C127.294 65.424 127.734 65.256 127.942 65.176L126.982 62.464H121.582C121.102 63.888 120.846 64.632 120.814 64.696L122.47 64.912C122.47 65.248 122.406 65.64 122.278 66.088C122.15 66.52 122.03 66.824 121.918 67H116.086L115.87 65.68C116.59 65.376 117.238 65.152 117.814 65.008L121.846 52.672C120.774 52.512 119.966 52.304 119.422 52.048C119.422 51.584 119.494 51.176 119.638 50.824C119.974 50.712 120.758 50.584 121.99 50.44C123.238 50.28 124.422 50.2 125.542 50.2C126.678 50.2 127.566 50.288 128.206 50.464ZM125.11 57.064L124.414 53.896H124.174L123.406 57.208L122.278 60.208H126.286L125.11 57.064ZM132.552 54.568C132.296 53.464 132.168 52.592 132.168 51.952C132.168 51.312 132.192 50.728 132.24 50.2H146.184C146.248 50.968 146.28 51.488 146.28 51.76C146.28 52.448 146.152 53.384 145.896 54.568C145.432 54.696 144.672 54.76 143.616 54.76L143.064 52.336H141.024C141.008 52.944 140.936 57.064 140.808 64.696L142.536 64.912C142.536 65.648 142.352 66.344 141.984 67H136.152L135.936 65.68C137.04 65.264 137.736 65.032 138.023 64.984C138.023 64.92 137.928 60.712 137.736 52.36H135.36L134.832 54.712C133.888 54.712 133.128 54.664 132.552 54.568ZM150.962 55.144L150.218 55.168C149.77 55.168 149.306 55.072 148.826 54.88C148.538 53.632 148.394 52.656 148.394 51.952C148.394 51.248 148.426 50.664 148.49 50.2H159.506C159.89 50.712 160.146 51.344 160.274 52.096L151.826 64.696H157.034L157.562 62.128L158.33 62.104C158.778 62.104 159.242 62.2 159.722 62.392C159.994 63.592 160.13 64.536 160.13 65.224C160.13 65.912 160.098 66.504 160.034 67H148.442C148.042 66.488 147.786 65.872 147.674 65.152L156.098 52.576H151.538L150.962 55.144ZM165.259 55.144L164.515 55.168C164.067 55.168 163.603 55.072 163.123 54.88C162.835 53.632 162.691 52.656 162.691 51.952C162.691 51.248 162.723 50.664 162.787 50.2H173.803C174.187 50.712 174.443 51.344 174.571 52.096L166.123 64.696H171.331L171.859 62.128L172.627 62.104C173.075 62.104 173.539 62.2 174.019 62.392C174.291 63.592 174.427 64.536 174.427 65.224C174.427 65.912 174.395 66.504 174.331 67H162.739C162.339 66.488 162.083 65.872 161.971 65.152L170.395 52.576H165.835L165.259 55.144Z" fill="url(#paint1_linear_84_899)"/>
<path d="M20.46 36.0714L20.05 32.5L20.46 32.0536H56.5401L56.9501 32.5L56.5401 36.0714L55.9251 36.5179H21.075L20.46 36.0714Z" fill="#83CBFF"/>
<path d="M40.55 20V36.0714L38.5 37.8571L36.45 36.0714V20H40.55Z" fill="#8D65C5"/>
<path d="M18 30.7143C18 30.2407 18.216 29.7865 18.6004 29.4516C18.9849 29.1167 19.5063 28.9286 20.05 28.9286H56.95C57.4937 28.9286 58.0151 29.1167 58.3996 29.4516C58.784 29.7865 59 30.2407 59 30.7143C59 31.1879 58.784 31.6421 58.3996 31.977C58.0151 32.3119 57.4937 32.5 56.95 32.5H20.05C19.5063 32.5 18.9849 32.3119 18.6004 31.977C18.216 31.6421 18 31.1879 18 30.7143Z" fill="#AEDDFF"/>
<path d="M40.55 28.9286V32.5H36.45V28.9286H40.55Z" fill="#BCA4EB"/>
<path d="M20.46 36.0714H56.54L52.85 68.2143C52.6511 69.2946 51.825 70 50.8 70H26.2C25.175 70 24.3058 69.2196 24.15 68.2143L20.46 36.0714Z" fill="#FD9F8A"/>
<path d="M33.0675 62.1786C32.3552 62.1786 31.6721 61.9321 31.1685 61.4934C30.6649 61.0547 30.382 60.4597 30.382 59.8393C30.382 59.2189 30.6649 58.6239 31.1685 58.1852C31.6721 57.7465 32.3552 57.5 33.0675 57.5C33.7797 57.5 34.4628 57.7465 34.9664 58.1852C35.47 58.6239 35.753 59.2189 35.753 59.8393C35.753 60.4597 35.47 61.0547 34.9664 61.4934C34.4628 61.9321 33.7797 62.1786 33.0675 62.1786ZM43.9324 62.1786C43.2202 62.1786 42.5371 61.9321 42.0335 61.4934C41.5299 61.0547 41.247 60.4597 41.247 59.8393C41.247 59.2189 41.5299 58.6239 42.0335 58.1852C42.5371 57.7465 43.2202 57.5 43.9324 57.5C44.6447 57.5 45.3278 57.7465 45.8314 58.1852C46.335 58.6239 46.6179 59.2189 46.6179 59.8393C46.6179 60.4597 46.335 61.0547 45.8314 61.4934C45.3278 61.9321 44.6447 62.1786 43.9324 62.1786ZM51.866 65.7321C51.866 66.0393 51.7965 66.3435 51.6615 66.6273C51.5266 66.9112 51.3288 67.169 51.0794 67.3863C50.83 67.6035 50.534 67.7758 50.2081 67.8934C49.8823 68.0109 49.5331 68.0714 49.1804 68.0714C48.8278 68.0714 48.4786 68.0109 48.1528 67.8934C47.8269 67.7758 47.5309 67.6035 47.2815 67.3863C47.0321 67.169 46.8343 66.9112 46.6994 66.6273C46.5644 66.3435 46.4949 66.0393 46.4949 65.7321C46.4949 65.1117 46.7779 64.5167 47.2815 64.078C47.7851 63.6393 48.4682 63.3929 49.1804 63.3929C49.8927 63.3929 50.5758 63.6393 51.0794 64.078C51.583 64.5167 51.866 65.1117 51.866 65.7321ZM39.033 68.0714C38.3207 68.0714 37.6376 67.825 37.134 67.3863C36.6304 66.9476 36.3475 66.3526 36.3475 65.7321C36.3475 65.1117 36.6304 64.5167 37.134 64.078C37.6376 63.6393 38.3207 63.3929 39.033 63.3929C39.7452 63.3929 40.4283 63.6393 40.9319 64.078C41.4355 64.5167 41.7185 65.1117 41.7185 65.7321C41.7185 66.3526 41.4355 66.9476 40.9319 67.3863C40.4283 67.825 39.7452 68.0714 39.033 68.0714ZM31.571 65.7321C31.571 66.0393 31.5015 66.3435 31.3665 66.6273C31.2316 66.9112 31.0338 67.169 30.7844 67.3863C30.535 67.6035 30.239 67.7758 29.9131 67.8934C29.5873 68.0109 29.2381 68.0714 28.8855 68.0714C28.5328 68.0714 28.1836 68.0109 27.8578 67.8934C27.5319 67.7758 27.2359 67.6035 26.9865 67.3863C26.7371 67.169 26.5393 66.9112 26.4044 66.6273C26.2694 66.3435 26.2 66.0393 26.2 65.7321C26.2 65.1117 26.4829 64.5167 26.9865 64.078C27.4901 63.6393 28.1732 63.3929 28.8855 63.3929C29.5977 63.3929 30.2808 63.6393 30.7844 64.078C31.288 64.5167 31.571 65.1117 31.571 65.7321Z" fill="black"/>
<path d="M45.5521 64.5L47.8686 41.2679C47.9144 40.8257 48.1477 40.4143 48.5229 40.1139C48.8982 39.8134 49.3884 39.6455 49.8981 39.6429C51.0871 39.6429 52.0301 40.5357 51.9276 41.5715L49.6111 64.8036C49.5291 65.7322 48.6476 66.4286 47.5816 66.4286C46.3926 66.4286 45.4496 65.5357 45.5521 64.5Z" fill="#FFF3D7"/>
<path d="M173.942 15.043L173.955 15.173C173.955 15.5283 173.898 15.8317 173.786 16.083C173.673 16.1697 173.495 16.239 173.253 16.291L175.424 22.713L176.659 22.869C176.659 23.2243 176.559 23.6013 176.36 24H173.201L173.084 23.285C173.448 23.1463 173.686 23.0553 173.799 23.012L173.279 21.543H170.354C170.094 22.3143 169.955 22.7173 169.938 22.752L170.835 22.869C170.835 23.051 170.8 23.2633 170.731 23.506C170.661 23.74 170.596 23.9047 170.536 24H167.377L167.26 23.285C167.65 23.1203 168.001 22.999 168.313 22.921L170.497 16.239C169.916 16.1523 169.478 16.0397 169.184 15.901C169.184 15.6497 169.223 15.4287 169.301 15.238C169.483 15.1773 169.907 15.108 170.575 15.03C171.251 14.9433 171.892 14.9 172.499 14.9C173.114 14.9 173.595 14.9477 173.942 15.043ZM172.265 18.618L171.888 16.902H171.758L171.342 18.696L170.731 20.321H172.902L172.265 18.618Z" fill="black"/>
<path d="M177.096 27.752C178.101 27.752 178.604 27.323 178.604 26.465C178.604 26.101 178.413 25.7933 178.032 25.542C177.755 25.3513 177.373 25.1477 176.888 24.931C176.411 24.7057 176.052 24.528 175.809 24.398C175.575 24.268 175.302 24.086 174.99 23.852C174.392 23.3927 174.093 22.8207 174.093 22.136C174.093 21.4513 174.357 20.8837 174.886 20.433C175.423 19.9737 176.147 19.744 177.057 19.744C177.967 19.744 178.938 20.0343 179.969 20.615C179.969 21.239 179.904 21.915 179.774 22.643C179.497 22.7297 179.085 22.773 178.539 22.773L178.162 21.226C177.841 21.1307 177.49 21.083 177.109 21.083C176.728 21.083 176.433 21.1653 176.225 21.33C176.017 21.4947 175.913 21.7417 175.913 22.071C175.913 22.3917 176.073 22.682 176.394 22.942C176.723 23.1933 177.118 23.4273 177.577 23.644C178.036 23.852 178.353 23.9993 178.526 24.086C178.699 24.1727 178.92 24.3027 179.189 24.476C179.458 24.6493 179.661 24.814 179.8 24.97C180.155 25.386 180.333 25.8497 180.333 26.361C180.333 27.2623 180.034 27.9557 179.436 28.441C178.838 28.9263 178.058 29.169 177.096 29.169C176.585 29.169 176.021 29.0823 175.406 28.909C174.799 28.727 174.284 28.4973 173.859 28.22C173.876 27.6913 173.946 26.9763 174.067 26.075C174.414 26.0057 174.83 25.971 175.315 25.971L175.588 27.531C176.065 27.6783 176.567 27.752 177.096 27.752Z" fill="black"/>
<defs>
<linearGradient id="paint0_linear_84_899" x1="64" y1="42.5" x2="158" y2="42.5" gradientUnits="userSpaceOnUse">
<stop stop-color="#FD9F8A"/>
<stop offset="1" stop-color="#DBC3DF"/>
</linearGradient>
<linearGradient id="paint1_linear_84_899" x1="100" y1="51" x2="181" y2="51" gradientUnits="userSpaceOnUse">
<stop stop-color="#DBC3DF"/>
<stop offset="1" stop-color="#FD9F8A"/>
</linearGradient>
</defs>
</svg>
