<svg width="30" height="30" viewBox="0 0 30 30" fill="none" xmlns="http://www.w3.org/2000/svg">
<g filter="url(#filter0_i_100_472)">
<path fill-rule="evenodd" clip-rule="evenodd" d="M10.5225 4.0625C10.8725 3.325 11.6275 2.8125 12.5 2.8125H17.5C18.3725 2.8125 19.1262 3.325 19.4775 4.0625C20.3312 4.07 20.9975 4.10875 21.5925 4.34125C22.3028 4.61909 22.9205 5.09126 23.375 5.70375C23.8337 6.32125 24.05 7.1125 24.345 8.20125L25.2725 11.6038L25.6225 12.655L25.6525 12.6925C26.7787 14.135 26.2425 16.28 25.17 20.5688C24.4875 23.2975 24.1475 24.6612 23.13 25.4562C22.1125 26.25 20.7062 26.25 17.8937 26.25H12.1062C9.29375 26.25 7.8875 26.25 6.87 25.4562C5.8525 24.6612 5.51125 23.2975 4.83 20.5688C3.7575 16.28 3.22125 14.135 4.3475 12.6925L4.3775 12.655L4.7275 11.6038L5.655 8.20125C5.95125 7.1125 6.1675 6.32 6.625 5.7025C7.07966 5.09048 7.69737 4.61875 8.4075 4.34125C9.0025 4.10875 9.6675 4.06875 10.5225 4.0625ZM10.525 5.94125C9.6975 5.95 9.365 5.98125 9.09 6.08875C8.70746 6.23835 8.37476 6.49264 8.13 6.8225C7.91 7.11875 7.78 7.5325 7.4175 8.86625L6.705 11.4775C7.98 11.25 9.7225 11.25 12.105 11.25H17.8937C20.2775 11.25 22.0187 11.25 23.2937 11.475L22.5825 8.86375C22.22 7.53 22.09 7.11625 21.87 6.82C21.6252 6.49014 21.2925 6.23585 20.91 6.08625C20.635 5.97875 20.3025 5.9475 19.475 5.93875C19.2975 6.31231 19.0178 6.6279 18.6682 6.84892C18.3186 7.06995 17.9136 7.18734 17.5 7.1875H12.5C12.0866 7.18746 11.6816 7.07024 11.332 6.84945C10.9825 6.62866 10.7027 6.31457 10.525 5.94125Z" fill="#FF9A62"/>
</g>
<defs>
<filter id="filter0_i_100_472" x="0" y="0" width="30" height="34" filterUnits="userSpaceOnUse" color-interpolation-filters="sRGB">
<feFlood flood-opacity="0" result="BackgroundImageFix"/>
<feBlend mode="normal" in="SourceGraphic" in2="BackgroundImageFix" result="shape"/>
<feColorMatrix in="SourceAlpha" type="matrix" values="0 0 0 0 0 0 0 0 0 0 0 0 0 0 0 0 0 0 127 0" result="hardAlpha"/>
<feOffset dy="4"/>
<feGaussianBlur stdDeviation="2"/>
<feComposite in2="hardAlpha" operator="arithmetic" k2="-1" k3="1"/>
<feColorMatrix type="matrix" values="0 0 0 0 0 0 0 0 0 0 0 0 0 0 0 0 0 0 0.25 0"/>
<feBlend mode="normal" in2="shape" result="effect1_innerShadow_100_472"/>
</filter>
</defs>
</svg>
